<?xml version="1.0" encoding="UTF-8"?>
<svg id="Layer_1" data-name="Layer 1" xmlns="http://www.w3.org/2000/svg" viewBox="0 0 1000 1000">
  <defs>
    <style>
      .cls-1 {
        fill: #00b1ce;
      }

      .cls-2 {
        fill: #fff;
      }
    </style>
  </defs>
  <rect class="cls-1" x="0" y="0" width="1000" height="1000" rx="215.31" ry="215.31"/>
  <g>
    <path class="cls-2" d="M808.66,274.89v30.19c-3.17,21.58-13.04,40.97-27.42,56.01-6.52,6.82-13.99,12.76-22.17,17.58-15.29,9.02-33.13,14.2-52.18,14.2h-74.93v-49.6h73.24c29.75,0,53.87-23.85,53.87-53.28s-24.12-53.28-53.87-53.28h-410.38c-29.75,0-53.87,23.85-53.87,53.28s24.12,53.28,53.87,53.28h97.37c1.66,0,3.31.07,4.94.23.05,0,.1,0,.15,0,10.8,1.01,20.68,5.16,28.73,11.54l.96.96,7.9,7.9c6.43,8.1,10.63,18.07,11.62,28.95.16,1.66.24,3.35.24,5.05v311.84c0,20.53,11.58,38.36,28.59,47.38.06.04.13.07.2.11,6.59,3.46,13.98,5.59,21.83,6.05,1.07.07,2.15.1,3.23.1s2.16-.03,3.23-.1c7.64-.45,14.86-2.48,21.31-5.78,17.4-8.89,29.3-26.94,29.3-47.76v-380.47c0-8-6.56-14.5-14.65-14.5s-14.65,6.49-14.65,14.5v370.88c0,13.8-11.14,25-24.9,25-12.69,0-23.16-9.54-24.7-21.86v-379.66c.24-3.02.69-5.97,1.33-8.85,5.36-24.07,24.25-43.03,48.27-48.5,2.04-.47,4.12-.83,6.22-1.1h16.15c2.35.29,4.66.72,6.92,1.26,23.68,5.68,42.26,24.51,47.57,48.34.38,1.68.68,3.39.91,5.12v390.11c0,19.5-5.42,37.73-14.86,53.28-8.38,13.81-19.92,25.5-33.63,34.05-8.94,5.59-18.8,9.83-29.3,12.46-8.03,2.02-16.44,3.09-25.1,3.09s-16.65-1.02-24.5-2.95c-.07,0-.14-.02-.2-.05-10.22-2.51-19.83-6.55-28.59-11.86-14.19-8.61-26.13-20.55-34.74-34.74-9.43-15.55-14.86-33.78-14.86-53.28v-313.7c-.52-1.64-1.81-2.93-3.45-3.45h-99.43c-19.51,0-37.75-5.43-53.29-14.86-5.3-3.22-10.28-6.9-14.89-11-21.29-18.83-34.71-46.36-34.71-77.03s13.42-58.2,34.71-77.03c4.61-4.1,9.6-7.78,14.89-11,15.54-9.42,33.78-14.86,53.29-14.86h412.65c19.05,0,36.88,5.18,52.18,14.2,8.19,4.82,15.65,10.76,22.17,17.58,14.39,15.04,24.26,34.43,27.42,56.01Z"/>
    <path class="cls-2" d="M760.51,951.65H239.49c-105.39,0-191.14-85.74-191.14-191.14V239.49c0-105.39,85.74-191.13,191.14-191.13h521.02c105.39,0,191.13,85.74,191.13,191.13v521.02c0,105.39-85.74,191.14-191.13,191.14ZM239.49,78.35c-88.85,0-161.14,72.28-161.14,161.13v521.02c0,88.85,72.29,161.14,161.14,161.14h521.02c88.85,0,161.13-72.29,161.13-161.14V239.49c0-88.85-72.29-161.13-161.13-161.13H239.49Z"/>
  </g>
</svg>