<?xml version="1.0" encoding="UTF-8"?>
<svg id="Layer_1" data-name="Layer 1" xmlns="http://www.w3.org/2000/svg" viewBox="0 0 1000 1000">
  <defs>
    <style>
      .cls-1 {
        fill: #00b1ce;
      }
    </style>
  </defs>
  <path class="cls-1" d="M986.99,144.83v47.63c-4.99,34.05-20.57,64.64-43.27,88.37-10.29,10.77-22.07,20.13-34.98,27.74-24.13,14.23-52.28,22.4-82.32,22.4h-118.22v-78.25h115.55c46.94,0,84.99-37.63,84.99-84.07s-38.06-84.07-84.99-84.07H176.26c-46.94,0-84.99,37.63-84.99,84.07s38.06,84.07,84.99,84.07h153.62c2.63,0,5.22.12,7.79.36.07,0,.16.01.23.01,17.05,1.59,32.63,8.14,45.33,18.21l1.52,1.52,12.47,12.47c10.15,12.77,16.77,28.5,18.33,45.68.26,2.63.38,5.28.38,7.97v492.01c0,32.39,18.27,60.53,45.1,74.76.1.06.2.12.32.17,10.39,5.46,22.05,8.82,34.44,9.54,1.69.12,3.39.16,5.09.16s3.41-.04,5.09-.16c12.05-.71,23.44-3.91,33.63-9.12,27.45-14.03,46.23-42.5,46.23-75.35V230.65c0-12.63-10.35-22.88-23.12-22.88s-23.11,10.25-23.11,22.88v585.16c0,21.78-17.58,39.44-39.29,39.44-20.02,0-36.54-15.05-38.97-34.49V221.74c.38-4.76,1.08-9.42,2.09-13.97,8.46-37.97,38.26-67.89,76.16-76.52,3.22-.74,6.49-1.31,9.81-1.73h25.49c3.71.46,7.35,1.14,10.93,1.99,37.37,8.96,66.68,38.67,75.05,76.26.59,2.66,1.07,5.35,1.44,8.08v615.5c0,30.77-8.56,59.53-23.44,84.07-13.22,21.79-31.43,40.24-53.05,53.72-14.1,8.82-29.66,15.52-46.23,19.66-12.67,3.19-25.94,4.88-39.6,4.88s-26.27-1.6-38.65-4.65c-.12-.01-.22-.03-.32-.07-16.12-3.95-31.29-10.33-45.1-18.72-22.39-13.58-41.23-32.43-54.82-54.82-14.88-24.54-23.44-53.3-23.44-84.07v-494.94c-.82-2.58-2.86-4.62-5.44-5.44h-156.88c-30.78,0-59.56-8.57-84.08-23.44-8.36-5.08-16.22-10.88-23.5-17.35-33.58-29.72-54.76-73.14-54.76-121.54s21.17-91.82,54.76-121.54c7.27-6.47,15.14-12.27,23.5-17.35,24.52-14.87,53.3-23.44,84.08-23.44h651.06c30.05,0,58.19,8.17,82.32,22.4,12.92,7.61,24.69,16.97,34.98,27.74,22.7,23.73,38.28,54.32,43.27,88.37Z"/>
</svg>